<svg width="1400" height="124" viewBox="0 0 1400 124" fill="none" xmlns="http://www.w3.org/2000/svg">
<path d="M174.464 58.8079V28.1684H146.242V0H28.9598C28.9598 15.5566 41.5955 28.1684 57.1818 28.1684H146.242V52.4956L105.82 65.5812L89.9643 52.0731C79.4003 43.072 66.1615 38.4114 52.275 38.4114H34.6362C15.4131 38.4114 -0.0384129 53.6992 7.17333e-05 72.8857L0.019314 82.3477C0.0513846 98.6918 10.5 107.494 14.7974 110.689C20.506 114.927 28.3183 117.616 39.7932 116.175C42.532 115.83 45.2259 115.183 47.8493 114.325L96.3772 98.4875L123.645 123.813H174.06L162.476 113.928L130.906 86.9891L161.09 77.0534C168.98 74.4606 174.464 67.0984 174.464 58.8079ZM42.4999 86.4194C35.9126 88.5896 29.1329 83.6729 29.165 76.7461C29.165 76.6244 29.165 76.5028 29.165 76.3812C29.1907 70.8051 33.8601 66.5798 39.4467 66.5798H51.3128C57.0727 66.5798 62.61 68.9413 68.2379 73.1622L73.8657 77.3831L42.4999 86.4194Z" fill="#FE5E07"/>
<path d="M439.684 19.5479C482.458 19.5479 502.528 38.6035 502.528 69.6201V77.7295H399.14C400.964 92.9335 410.695 105.3 441.306 105.3C467.862 105.3 477.187 97.3935 478.81 89.082H502.528C501.312 106.516 484.08 123.748 441.306 123.748C388.396 123.748 372.989 97.3937 372.988 72.459C372.988 40.4288 397.517 19.548 439.684 19.5479ZM696.068 19.5479C745.33 19.5479 764.792 45.4965 764.792 71.8506C764.792 98.4072 745.735 123.748 696.068 123.748C646.199 123.748 627.346 98.4071 627.346 71.8506C627.346 45.4965 646.807 19.5479 696.068 19.5479ZM596.725 19.5479C606.455 19.5479 614.362 21.1698 619.024 22.5889V44.8877C613.551 43.2659 605.847 41.2393 595.509 41.2393C562.871 41.2393 547.868 63.5385 547.868 92.7305V121.721H521.92V21.5752H547.868L547.463 57.8623H547.868C554.558 33.1301 567.735 19.548 596.725 19.5479ZM360.351 36.1602L285.343 101.235V101.438H360.351V121.71H248.853V106.911L323.86 42.2422V41.8369H250.677V21.5645H360.351V36.1602ZM850.449 20.0352C896.609 20.0352 906.432 36.5468 906.432 54.8271H882.663C882.467 45.1957 877.752 37.923 851.235 37.9229C828.253 37.9229 817.449 42.4441 817.449 51.6826C817.449 55.6138 819.414 58.3653 825.699 59.7412C832.574 61.5102 845.146 61.5106 860.467 62.2969C877.752 63.0831 890.52 64.2627 898.967 67.8008C908.002 71.9287 912.128 79.7918 912.128 89.0303C912.128 103.969 900.931 121.07 850.449 121.07C800.164 121.07 792.307 101.413 792.307 86.8672H816.074C816.271 94.9263 820.199 103.183 850.449 103.183C880.306 103.183 886.985 97.4822 886.985 89.8164C886.985 85.8852 885.413 82.9365 879.128 81.5605C872.253 80.1846 857.521 79.7916 844.949 79.3984C824.914 78.8087 810.181 76.4501 802.717 72.3223C795.449 68.391 792.307 60.9213 792.307 52.8623C792.307 33.2058 813.324 20.0352 850.449 20.0352ZM993.736 20.0352C1035.09 20.0353 1054.5 38.5127 1054.5 68.5869V76.4492H954.534C956.298 91.1915 965.707 103.183 995.304 103.183C1020.98 103.183 1030 95.5162 1031.57 87.457H1054.5C1053.32 104.362 1036.66 121.07 995.304 121.07C944.146 121.07 929.249 95.5163 929.249 71.3389C929.249 40.2817 952.967 20.0352 993.736 20.0352ZM1240.68 20.0352C1282.18 20.0352 1303.16 37.9825 1303.16 68.0566V76.4492H1201.35C1203.12 91.1915 1212.56 103.183 1242.26 103.183C1268.02 103.183 1278.54 95.7085 1280.11 87.6494H1303.16C1301.98 104.554 1283.75 121.07 1242.26 121.07C1190.93 121.07 1175.98 95.5163 1175.98 71.3389C1175.98 40.2817 1199.78 20.0352 1240.68 20.0352ZM1109.43 22.0449H1164.71V41.7275H1109.43V80.3066C1109.43 94.2814 1116.49 100.776 1140.79 100.776C1148.83 100.776 1158.83 99.5955 1163.93 98.6113V117.704C1159.61 119.082 1149.03 120.656 1138.05 120.656C1097.67 120.656 1084.34 103.926 1084.34 81.4873V41.7275H1064.93V22.0449H1080.61C1084.73 22.0448 1086.1 19.8792 1086.69 14.7617L1088.26 0H1109.43V22.0449ZM696.068 39.8203C664.849 39.8204 653.294 55.2273 653.294 71.8506C653.294 88.2709 664.647 103.476 696.068 103.476C727.49 103.476 738.842 88.4737 738.843 71.8506C738.843 55.2272 727.288 39.8203 696.068 39.8203ZM1364.68 24.1572C1384.16 24.1572 1400 39.1579 1400 57.5938C1400 76.0294 1384.15 91.0293 1364.68 91.0293C1345.21 91.0292 1329.36 76.0293 1329.36 57.5938C1329.36 39.158 1345.21 24.1573 1364.68 24.1572ZM1364.68 28.5146C1347.68 28.5148 1333.96 41.5044 1333.96 57.5938C1333.97 73.683 1347.69 86.6718 1364.68 86.6719C1381.68 86.6719 1395.4 73.683 1395.4 57.5938C1395.4 41.5043 1381.68 28.5146 1364.68 28.5146ZM1364.68 39.0732C1375.83 39.0732 1381.94 44.7718 1381.94 51.8945H1375.21C1374.6 47.5372 1370.88 44.7725 1364.68 44.7725C1356.89 44.7726 1352.73 50.0519 1352.73 57.1748C1352.73 64.5489 1357.51 69.6601 1365.21 69.6602C1371.23 69.6602 1374.59 67.0628 1375.39 62.873H1382.12C1381.68 69.7444 1375.39 75.3584 1365.21 75.3584C1353.08 75.3584 1346 68.0684 1346 57.1748C1346 45.5268 1355.3 39.0733 1364.68 39.0732ZM440.697 37.9951C415.56 37.9952 403.396 46.5105 399.95 62.1201H478.81V61.5117C478.81 48.132 468.065 37.9951 440.697 37.9951ZM994.716 37.9229C970.411 37.9229 958.65 46.179 955.318 61.3145H1031.57V60.7246C1031.57 47.7514 1021.18 37.9229 994.716 37.9229ZM1241.67 37.9229C1217.28 37.9229 1205.48 46.179 1202.14 61.3145H1280.11V60.7246C1280.11 47.7514 1268.22 37.9229 1241.67 37.9229Z" fill="#FE5E07"/>
</svg>
