<svg width="1416" height="352" viewBox="0 0 1416 352" fill="none" xmlns="http://www.w3.org/2000/svg">
<path d="M494.81 166.762V79.8773H414.768V0H82.1351C82.1351 44.1141 117.972 79.8773 162.178 79.8773H414.768V148.862L300.125 185.969L255.155 147.664C225.194 122.14 187.646 108.924 148.261 108.924H98.2344C43.7143 108.924 -0.108946 152.275 0.000203449 206.683L0.0547781 233.514C0.145736 279.861 29.7798 304.823 41.9681 313.882C58.1586 325.9 80.3159 333.524 112.861 329.44C120.628 328.459 128.269 326.626 135.709 324.193L273.343 279.282L350.679 351.097H493.665L460.811 323.067L371.272 246.676L456.881 218.501C479.257 211.148 494.81 190.271 494.81 166.762ZM120.537 245.06C101.855 251.214 82.6263 237.272 82.7172 217.629C82.7172 217.284 82.7172 216.94 82.7172 216.595C82.79 200.783 96.0333 188.801 111.878 188.801H145.533C161.869 188.801 177.573 195.497 193.535 207.466L209.497 219.436L120.537 245.06Z" fill="#FF5E06"/>
<path d="M640.983 208.539C706.071 208.539 719.92 231.821 719.92 257.597H686.406C686.129 244.016 679.482 233.761 642.091 233.761C609.685 233.761 594.452 240.136 594.452 253.162C594.452 258.705 597.222 262.585 606.085 264.525C615.779 267.02 633.505 267.02 655.108 268.129C679.482 269.238 697.485 270.901 709.395 275.89C722.135 281.71 727.952 292.797 727.952 305.823C727.952 326.887 712.163 351 640.983 351C570.08 351 559 323.284 559 302.774H592.514C592.791 314.138 598.331 325.778 640.983 325.778C683.082 325.778 692.499 317.741 692.499 306.932C692.499 301.388 690.284 297.231 681.421 295.291C671.727 293.351 650.954 292.797 633.228 292.242C604.977 291.411 584.205 288.084 573.68 282.264C563.432 276.721 559 266.189 559 254.825C559 227.109 588.636 208.539 640.983 208.539ZM843.021 208.539C901.337 208.539 928.698 234.592 928.698 276.998V288.085H787.746C790.234 308.872 803.5 325.778 845.232 325.778C881.437 325.778 894.151 314.969 896.362 303.605H928.698C927.04 327.441 903.547 351 845.232 351C773.099 351 752.094 314.969 752.094 280.878C752.094 237.087 785.535 208.539 843.021 208.539ZM1191.23 208.539C1249.74 208.539 1279.32 233.845 1279.32 276.251V288.085H1135.77C1138.26 308.872 1151.57 325.778 1193.44 325.778C1229.77 325.778 1244.6 315.239 1246.82 303.876H1279.32C1277.65 327.712 1251.95 351 1193.44 351C1121.07 351 1100 314.969 1100 280.878C1100 237.087 1133.55 208.539 1191.23 208.539ZM1006.15 211.37H1084.1V239.124H1006.15V293.521C1006.15 313.225 1016.1 322.385 1050.38 322.385C1061.71 322.385 1075.81 320.72 1083 319.332V346.253C1076.91 348.196 1061.99 350.416 1046.51 350.416C989.569 350.416 970.772 326.824 970.771 295.186V239.124H943.407V211.37H965.521C971.325 211.37 973.26 208.317 974.089 201.102L976.3 180.286H1006.15V211.37ZM844.403 233.761C810.133 233.761 793.55 245.402 788.852 266.743H896.362V265.911C896.362 247.619 881.714 233.761 844.403 233.761ZM1192.61 233.761C1158.23 233.761 1141.59 245.402 1136.88 266.743H1246.82V265.911C1246.82 247.619 1230.05 233.761 1192.61 233.761ZM828.076 0C888.39 0 916.688 26.87 916.688 70.6045V82.0381H770.907C773.48 103.477 787.201 120.913 830.363 120.913C867.809 120.913 880.958 109.766 883.245 98.0459H916.688C914.973 122.629 890.677 146.926 830.363 146.926C755.758 146.926 734.033 109.765 734.033 74.6064C734.033 29.4429 768.621 0.000200108 828.076 0ZM1189.58 0C1259.04 4.19335e-05 1286.49 36.589 1286.49 73.749C1286.49 111.195 1259.62 146.926 1189.58 146.926C1119.27 146.926 1092.68 111.195 1092.68 73.749C1092.68 36.589 1120.12 6.1301e-05 1189.58 0ZM1049.51 0C1063.23 0 1074.38 2.28717 1080.95 4.28809V35.7314C1073.23 33.4447 1062.37 30.5859 1047.79 30.5859C1001.77 30.586 980.618 62.0296 980.618 103.191V144.067H944.03V2.85938H980.618L980.047 54.0254H980.618C990.051 19.1523 1008.63 0.000145982 1049.51 0ZM716.215 23.4258L610.452 115.183V115.468H716.215V144.053H559V123.187L664.763 32.001V31.4297H561.572V2.84473H716.215V23.4258ZM1189.58 28.585C1145.56 28.585 1129.27 50.3097 1129.27 73.749C1129.27 96.9025 1145.28 118.341 1189.58 118.341C1233.89 118.341 1249.9 97.1883 1249.9 73.749C1249.9 50.3096 1233.6 28.585 1189.58 28.585ZM1366.07 1.5332C1393.53 1.5332 1415.87 22.6836 1415.87 48.6787C1415.87 74.6737 1393.53 95.8242 1366.07 95.8242C1338.61 95.8242 1316.26 74.6737 1316.26 48.6787C1316.26 22.6837 1338.61 1.53324 1366.07 1.5332ZM1366.07 7.67773C1342.1 7.67777 1322.75 25.9921 1322.75 48.6787C1322.75 71.3653 1342.1 89.6796 1366.07 89.6797C1390.03 89.6797 1409.38 71.3653 1409.38 48.6787C1409.38 25.9921 1390.03 7.67773 1366.07 7.67773ZM1366.07 22.5654C1381.79 22.5654 1390.41 30.6001 1390.41 40.6436H1380.92C1380.05 34.4994 1374.8 30.6006 1366.07 30.6006C1355.08 30.6006 1349.22 38.0444 1349.22 48.0879C1349.22 58.4859 1355.96 65.6934 1366.82 65.6934C1375.3 65.6933 1380.05 62.0308 1381.17 56.123H1390.66C1390.03 65.8119 1381.17 73.7285 1366.82 73.7285C1349.72 73.7285 1339.73 63.4486 1339.73 48.0879C1339.73 31.6638 1352.84 22.5655 1366.07 22.5654ZM829.506 26.0127C794.061 26.0127 776.91 38.0182 772.051 60.0283H883.245V59.1709C883.245 40.305 868.095 26.0127 829.506 26.0127Z" fill="#FF5E06"/>
</svg>
